<svg width="65" height="69" viewBox="0 0 65 69" fill="none" xmlns="http://www.w3.org/2000/svg">
<path fill-rule="evenodd" clip-rule="evenodd" d="M27.7065 0.0640931C35.7798 0.854637 38.5468 10.8718 44.5253 16.3585C51.0585 22.3543 62.0113 24.5011 63.8008 33.1894C65.7345 42.5773 60.1046 52.056 53.2588 58.7601C46.4836 65.395 37.1474 69.392 27.7065 68.5365C18.905 67.7389 11.8509 61.4729 6.39771 54.5135C1.64103 48.443 -0.145997 40.902 0.00924118 33.1894C0.160718 25.6636 2.41222 18.4803 7.23918 12.7074C12.5878 6.31051 19.4113 -0.748177 27.7065 0.0640931Z" fill="#F55529"/>
<g clip-path="url(#clip0_1_1286)">
<path d="M36.5217 24.825H53.5652C54.908 24.825 56 23.733 56 22.3903V15.0859C56 13.7431 54.908 12.6511 53.5652 12.6511H36.5217C35.179 12.6511 34.087 13.7431 34.087 15.0859V17.5207H28C27.328 17.5207 26.7826 18.0661 26.7826 18.7381V39.4337H21.913V36.9989C21.913 35.6562 20.821 34.5642 19.4783 34.5642H2.43478C1.092 34.5642 0 35.6562 0 36.9989V44.3033C0 45.6461 1.092 46.7381 2.43478 46.7381H19.4783C20.821 46.7381 21.913 45.6461 21.913 44.3033V41.8685H26.7826V62.5642C26.7826 63.2362 27.328 63.7816 28 63.7816H34.087V66.2163C34.087 67.5591 35.179 68.6511 36.5217 68.6511H53.5652C54.908 68.6511 56 67.5591 56 66.2163V58.912C56 57.5692 54.908 56.4772 53.5652 56.4772H36.5217C35.179 56.4772 34.087 57.5692 34.087 58.912V61.3468H29.2174V41.8685H34.087V44.3033C34.087 45.6461 35.179 46.7381 36.5217 46.7381H53.5652C54.908 46.7381 56 45.6461 56 44.3033V36.9989C56 35.6562 54.908 34.5642 53.5652 34.5642H36.5217C35.179 34.5642 34.087 35.6562 34.087 36.9989V39.4337H29.2174V19.9555H34.087V22.3903C34.087 23.733 35.179 24.825 36.5217 24.825ZM36.5217 15.0859L53.5652 15.0847V22.3903H36.5217V15.0859ZM19.4783 44.3033H2.43478V36.9989L19.4783 36.9977V44.3033ZM36.5217 58.912L53.5652 58.9108V66.2163H36.5217V58.912ZM36.5217 36.9989L53.5652 36.9977V44.3033H36.5217V36.9989Z" fill="white"/>
</g>
<defs>
<clipPath id="clip0_1_1286">
<rect width="56" height="56" fill="white" transform="translate(0 12.6511)"/>
</clipPath>
</defs>
</svg>
