<svg width="65" height="69" viewBox="0 0 65 69" fill="none" xmlns="http://www.w3.org/2000/svg">
<path fill-rule="evenodd" clip-rule="evenodd" d="M27.7065 0.0640931C35.7798 0.854637 38.5468 10.8718 44.5253 16.3585C51.0585 22.3543 62.0113 24.5011 63.8008 33.1894C65.7345 42.5773 60.1046 52.056 53.2588 58.7601C46.4836 65.395 37.1474 69.392 27.7065 68.5365C18.905 67.7389 11.8509 61.4729 6.39771 54.5135C1.64103 48.443 -0.145997 40.902 0.00924118 33.1894C0.160718 25.6636 2.41222 18.4803 7.23918 12.7074C12.5878 6.31051 19.4113 -0.748177 27.7065 0.0640931Z" fill="#F55529"/>
<path d="M11.8125 42.4011C11.8125 42.7492 11.6742 43.0831 11.4281 43.3292C11.1819 43.5754 10.8481 43.7136 10.5 43.7136H5.25C4.9019 43.7136 4.56806 43.5754 4.32192 43.3292C4.07578 43.0831 3.9375 42.7492 3.9375 42.4011C3.9375 42.053 4.07578 41.7192 4.32192 41.4731C4.56806 41.2269 4.9019 41.0886 5.25 41.0886H7.4375V26.2136H5.25C4.9019 26.2136 4.56806 26.0754 4.32192 25.8292C4.07578 25.5831 3.9375 25.2492 3.9375 24.9011C3.9375 24.553 4.07578 24.2192 4.32192 23.9731C4.56806 23.7269 4.9019 23.5886 5.25 23.5886H8.75C8.97264 23.5877 9.19186 23.6435 9.38702 23.7506C9.58218 23.8578 9.74688 24.0128 9.86562 24.2011L17.5 36.4293L25.1344 24.2011C25.2531 24.0128 25.4178 23.8578 25.613 23.7506C25.8081 23.6435 26.0274 23.5877 26.25 23.5886H29.75C30.0981 23.5886 30.4319 23.7269 30.6781 23.9731C30.9242 24.2192 31.0625 24.553 31.0625 24.9011C31.0625 25.2492 30.9242 25.5831 30.6781 25.8292C30.4319 26.0754 30.0981 26.2136 29.75 26.2136H27.5625V41.0886H29.75C30.0981 41.0886 30.4319 41.2269 30.6781 41.4731C30.9242 41.7192 31.0625 42.053 31.0625 42.4011C31.0625 42.7492 30.9242 43.0831 30.6781 43.3292C30.4319 43.5754 30.0981 43.7136 29.75 43.7136H24.5C24.1519 43.7136 23.8181 43.5754 23.5719 43.3292C23.3258 43.0831 23.1875 42.7492 23.1875 42.4011C23.1875 42.053 23.3258 41.7192 23.5719 41.4731C23.8181 41.2269 24.1519 41.0886 24.5 41.0886H24.9375V29.473L18.6156 39.6011C18.4979 39.7911 18.3337 39.9478 18.1384 40.0565C17.9432 40.1652 17.7234 40.2222 17.5 40.2222C17.2766 40.2222 17.0568 40.1652 16.8616 40.0565C16.6663 39.9478 16.5021 39.7911 16.3844 39.6011L10.0625 29.473V41.0886H10.5C10.8481 41.0886 11.1819 41.2269 11.4281 41.4731C11.6742 41.7192 11.8125 42.053 11.8125 42.4011ZM36.75 36.7136H52.5C52.8481 36.7136 53.1819 36.5754 53.4281 36.3292C53.6742 36.0831 53.8125 35.7492 53.8125 35.4011C53.8125 35.053 53.6742 34.7192 53.4281 34.4731C53.1819 34.2269 52.8481 34.0886 52.5 34.0886H36.75C36.4019 34.0886 36.0681 34.2269 35.8219 34.4731C35.5758 34.7192 35.4375 35.053 35.4375 35.4011C35.4375 35.7492 35.5758 36.0831 35.8219 36.3292C36.0681 36.5754 36.4019 36.7136 36.75 36.7136ZM52.5 41.0886H36.75C36.4019 41.0886 36.0681 41.2269 35.8219 41.4731C35.5758 41.7192 35.4375 42.053 35.4375 42.4011C35.4375 42.7492 35.5758 43.0831 35.8219 43.3292C36.0681 43.5754 36.4019 43.7136 36.75 43.7136H52.5C52.8481 43.7136 53.1819 43.5754 53.4281 43.3292C53.6742 43.0831 53.8125 42.7492 53.8125 42.4011C53.8125 42.053 53.6742 41.7192 53.4281 41.4731C53.1819 41.2269 52.8481 41.0886 52.5 41.0886ZM52.5 48.0886H15.75C15.4019 48.0886 15.0681 48.2269 14.8219 48.4731C14.5758 48.7192 14.4375 49.053 14.4375 49.4011C14.4375 49.7492 14.5758 50.0831 14.8219 50.3292C15.0681 50.5754 15.4019 50.7136 15.75 50.7136H52.5C52.8481 50.7136 53.1819 50.5754 53.4281 50.3292C53.6742 50.0831 53.8125 49.7492 53.8125 49.4011C53.8125 49.053 53.6742 48.7192 53.4281 48.4731C53.1819 48.2269 52.8481 48.0886 52.5 48.0886ZM52.5 55.0886H15.75C15.4019 55.0886 15.0681 55.2269 14.8219 55.4731C14.5758 55.7192 14.4375 56.053 14.4375 56.4011C14.4375 56.7492 14.5758 57.0831 14.8219 57.3292C15.0681 57.5754 15.4019 57.7136 15.75 57.7136H52.5C52.8481 57.7136 53.1819 57.5754 53.4281 57.3292C53.6742 57.0831 53.8125 56.7492 53.8125 56.4011C53.8125 56.053 53.6742 55.7192 53.4281 55.4731C53.1819 55.2269 52.8481 55.0886 52.5 55.0886Z" fill="white"/>
</svg>
